<svg xmlns="http://www.w3.org/2000/svg" viewBox="0 0 67.98 13.68">
  <defs/>
  <g fill="#FFFFFF">
    <path d="M.07 5.99l3.3.1a2.77 2.77 0 001 1.7 3.23 3.23 0 004.7 0 4.25 4.25 0 001-1.7h3.3a6.6 6.6 0 01-1.9 5.6 6.55 6.55 0 01-9.4 0 6.4 6.4 0 01-2-5.7zm.3-1.5a5.15 5.15 0 011.6-2.5 6.55 6.55 0 019.4 0 6.69 6.69 0 011.6 2.5h-3a3.35 3.35 0 00-1-1.7 3.23 3.23 0 00-4.7 0 4.25 4.25 0 00-1 1.7z"/>
    <circle cx="37.27" cy="6.83" r="1.63"/>
    <path d="M21.34 3.15a3.86 3.86 0 011.58 1.48 4.22 4.22 0 01.56 2.19 4.22 4.22 0 01-.57 2.2 3.86 3.86 0 01-1.6 1.48 5.17 5.17 0 01-2.39.53h-3.54V2.62h3.63a4.97 4.97 0 012.33.53zm-1.14 5.8a2.03 2.03 0 00.76-.85 2.78 2.78 0 00.28-1.26 2.67 2.67 0 00-.3-1.27 2.15 2.15 0 00-.8-.86 2.26 2.26 0 00-1.18-.3h-1.38v4.85h1.49a2.12 2.12 0 001.13-.3zM29.63 11.03L28.4 8.7h-1.63v2.33h-2.2V2.62h3.79a3.9 3.9 0 012.58.77 2.7 2.7 0 01.92 2.18 3.31 3.31 0 01-.38 1.64 2.65 2.65 0 01-1.12 1.07l1.75 2.75zm-2.86-4.08h1.6a1.48 1.48 0 001.04-.33 1.25 1.25 0 00.36-.98 1.2 1.2 0 00-.36-.94 1.5 1.5 0 00-1.04-.33h-1.6zM39.6 3.05a4.24 4.24 0 011.63 1.55 4.19 4.19 0 01.59 2.2 4.26 4.26 0 01-2.23 3.81 4.99 4.99 0 01-4.64 0 4.22 4.22 0 01-1.63-1.56 4.3 4.3 0 01-.6-2.24 4.18 4.18 0 012.23-3.76 5.07 5.07 0 014.64 0zm-3.46 1.62a2.34 2.34 0 00-.85.9 2.68 2.68 0 000 2.52 2.44 2.44 0 00.85.9 2.13 2.13 0 001.16.33 2.1 2.1 0 001.14-.33 2.33 2.33 0 00.82-.9 2.8 2.8 0 000-2.52 2.29 2.29 0 00-.82-.9 2.13 2.13 0 00-1.14-.32 2.19 2.19 0 00-1.16.32zM48.66 2.62h2.04v8.41h-1.92L44.96 6v5.03h-2.05V2.62h1.93l3.83 5.06zM52.34 2.62h6.64v1.75h-4.44v1.57h4v1.74l-4 .02v1.58h4.56v1.75h-6.76zM65.5 11.03L64.27 8.7h-1.63v2.33h-2.2V2.62h3.78a3.9 3.9 0 012.59.77 2.69 2.69 0 01.92 2.18 3.32 3.32 0 01-.39 1.64 2.65 2.65 0 01-1.11 1.07l1.75 2.75zm-2.86-4.08h1.6a1.48 1.48 0 001.03-.33 1.26 1.26 0 00.37-.98 1.2 1.2 0 00-.37-.94 1.5 1.5 0 00-1.03-.33h-1.6z"/>
  </g>
</svg>
